<svg width="24" height="38" viewBox="0 0 24 38" fill="none" xmlns="http://www.w3.org/2000/svg">
<path d="M11.9556 0H11.9013C5.33883 0 0 5.33704 0 11.8971C0 16.1971 1.95833 21.8722 5.82056 28.7649C8.684 33.8749 11.5876 37.7886 11.6167 37.8275C11.6975 37.936 11.8249 38 11.9599 38C11.9637 38 11.9676 38 11.9715 37.9998C12.1107 37.996 12.2393 37.9247 12.3165 37.8086C12.3452 37.7653 15.228 33.4118 18.072 28.087C21.9107 20.9 23.8571 15.4528 23.8571 11.8971C23.8568 5.33695 18.5179 0 11.9556 0Z" fill="#E02F2F"/>
<path d="M18.7861 22.2697C18.7807 21.8142 18.5506 21.4067 18.1192 21.0906C17.9167 20.9421 17.8006 20.7216 17.8006 20.4851L17.7994 17.334C17.5252 14.5464 14.6484 12.823 12.9581 12.0438C12.8206 11.9805 12.6802 11.928 12.538 11.8822C13.3182 11.0874 13.6723 10.471 13.6077 10.0075C13.5654 9.70353 13.2902 9.47414 12.9679 9.47414H12.1342C11.7809 9.47414 11.1796 9.33198 10.4843 9.08439C10.1855 8.97747 9.87308 8.9718 9.60503 9.06936C9.35815 9.1588 9.17339 9.31375 9.05636 9.52909C8.88019 9.85207 8.91396 10.2677 9.1421 10.5872L10.1052 11.9356C10.0135 11.9693 9.92162 12.0026 9.83218 12.0437C8.14184 12.823 5.26501 14.5463 4.98959 17.3579V20.485C4.98959 20.7216 4.87354 20.9421 4.67129 21.0906C4.2396 21.4067 4.00926 21.8142 4.00407 22.2697C3.99422 22.3648 3.98091 22.7021 4.24625 23.0118C4.53328 23.3471 5.03192 23.5171 5.72866 23.5171H17.0616C17.7583 23.5171 18.2567 23.3471 18.5437 23.0118C18.8093 22.7021 18.796 22.3648 18.7861 22.2697ZM9.54291 10.3009C9.42367 10.1337 9.40248 9.92352 9.48894 9.76484C9.54783 9.65642 9.64094 9.58032 9.77302 9.53252C9.93364 9.47462 10.1273 9.48005 10.3187 9.54855C10.7573 9.70475 11.5764 9.96687 12.1342 9.96687H12.9679C13.0433 9.96687 13.1115 10.0159 13.1199 10.0758C13.1406 10.2243 13.0736 10.6759 12.0344 11.6914H10.5363L9.54291 10.3009ZM16.3513 17.6686C16.3415 17.6698 16.3318 17.6703 16.3222 17.6703C16.1991 17.6703 16.0924 17.5781 16.0778 17.4527C15.8532 15.5464 13.5745 14.2268 12.236 13.6099C11.7058 13.3655 11.0845 13.3655 10.5543 13.6099C9.21576 14.2268 6.9371 15.5464 6.71242 17.4527C6.69664 17.588 6.57545 17.6846 6.43893 17.6686C6.30367 17.6528 6.2071 17.5301 6.22312 17.3951C6.4759 15.25 8.91593 13.8225 10.3478 13.1625C11.0088 12.858 11.7812 12.858 12.4424 13.1625C13.8741 13.8225 16.3144 15.25 16.5671 17.3951C16.5829 17.5301 16.4865 17.6528 16.3513 17.6686Z" fill="white"/>
<path d="M14.4312 4.6875C14.1551 4.96424 14 5.3392 14 5.73012C14 6.12105 14.1551 6.49601 14.4312 6.77274C14.602 6.94391 14.6979 7.17583 14.6979 7.41762C14.6979 7.65941 14.602 7.89133 14.4312 8.0625L14.1499 8.34375L14.5477 8.74149L14.8289 8.46024C15.105 8.1835 15.2601 7.80854 15.2601 7.41762C15.2601 7.02669 15.105 6.65173 14.8289 6.375C14.6581 6.20383 14.5622 5.97191 14.5622 5.73012C14.5622 5.48833 14.6581 5.25641 14.8289 5.08524C15.105 4.8085 15.2601 4.43354 15.2601 4.04262C15.2601 3.6517 15.105 3.27674 14.8289 3L14.4312 3.39774C14.602 3.56891 14.6979 3.80083 14.6979 4.04262C14.6979 4.28441 14.6019 4.51633 14.4312 4.6875V4.6875Z" fill="white"/>
<path d="M8.82896 7.05399C9.10507 6.77725 9.26014 6.40229 9.26013 6.01137C9.26013 5.62045 9.10506 5.24549 8.82895 4.96875C8.65818 4.79758 8.56228 4.56566 8.56228 4.32387C8.56228 4.08208 8.65818 3.85017 8.82895 3.67899L9.1102 3.39774L8.71246 3L8.43121 3.28125C8.1551 3.55799 8.00004 3.93295 8.00004 4.32388C8.00004 4.7148 8.15511 5.08976 8.43123 5.36649C8.602 5.53767 8.6979 5.76959 8.69789 6.01138C8.69789 6.25317 8.60198 6.48509 8.43121 6.65625C8.1551 6.93299 8.00004 7.30795 8.00004 7.69887C8.00004 8.0898 8.1551 8.46475 8.43121 8.74149L8.82895 8.34375C8.65818 8.17258 8.56227 7.94066 8.56228 7.69887C8.56228 7.45708 8.65819 7.22516 8.82896 7.05399V7.05399Z" fill="white"/>
<path d="M11.4312 3.6875C11.1551 3.96424 11 4.3392 11 4.73012C11 5.12105 11.1551 5.49601 11.4312 5.77274C11.602 5.94391 11.6979 6.17583 11.6979 6.41762C11.6979 6.65941 11.602 6.89133 11.4312 7.0625L11.1499 7.34375L11.5477 7.74149L11.8289 7.46024C12.105 7.1835 12.2601 6.80854 12.2601 6.41762C12.2601 6.02669 12.105 5.65173 11.8289 5.375C11.6581 5.20383 11.5622 4.97191 11.5622 4.73012C11.5622 4.48833 11.6581 4.25641 11.8289 4.08524C12.105 3.8085 12.2601 3.43354 12.2601 3.04262C12.2601 2.6517 12.105 2.27674 11.8289 2L11.4312 2.39774C11.602 2.56891 11.6979 2.80083 11.6979 3.04262C11.6979 3.28441 11.6019 3.51633 11.4312 3.6875V3.6875Z" fill="white"/>
</svg>
